<svg width="13" height="13" version="1.1" viewBox="0 0 3.4396 3.4396" xmlns="http://www.w3.org/2000/svg"><g transform="translate(137.15 73.394)"><path d="m-136.27-73.025c-0.054-1.1e-5 -0.11983 0.05391-0.16475 0.13498l-0.67371 1.2148c-0.0599 0.10798-0.0599 0.26996 0.0299 0.26996h1.7967c0.0897 0 0.25448-0.13499 0.32942-0.26996l0.0749-0.13498c0.44917-0.80982 0.31443-1.2148-0.31441-1.2148zm0.80383 0.29039h0.15279v1.0109h-0.15279zm-0.51947 0.0136 0.39574 0.43927v0.10366l-0.39574 0.4392-0.0932-0.10359 0.28319-0.31421h-0.72173v-0.14645h0.72174l-0.28319-0.31421zm1.527 0.77819c-0.0243 0.17971-0.1125 0.33423-0.26825 0.60379l-0.0779 0.09753c-0.0778 0.13478-0.24921 0.26951-0.34265 0.26951h-1.7956l-0.15109 0.37707c-0.0836 0.14933-0.0728 0.26959 0.0244 0.26959h2.368c0.0971 0 0.2428-0.12025 0.32648-0.26959l0.60417-1.0782c0.0836-0.14933 0.0728-0.26959-0.0244-0.26959z" fill="#0d7af6" stroke-miterlimit="10" stroke-width=".032874"/></g></svg>
