<?xml version="1.0" encoding="UTF-8" standalone="no"?>
<svg
   width="16"
   height="16"
   version="1.1"
   viewBox="0 0 4.2333 4.2333"
   id="svg2"
   sodipodi:docname="briskine-logo-small.svg"
   inkscape:version="1.3 (0e150ed6c4, 2023-07-21)"
   xmlns:inkscape="http://www.inkscape.org/namespaces/inkscape"
   xmlns:sodipodi="http://sodipodi.sourceforge.net/DTD/sodipodi-0.dtd"
   xmlns="http://www.w3.org/2000/svg"
   xmlns:svg="http://www.w3.org/2000/svg">
  <defs
     id="defs2" />
  <sodipodi:namedview
     id="namedview2"
     pagecolor="#ffffff"
     bordercolor="#666666"
     borderopacity="1.0"
     inkscape:showpageshadow="2"
     inkscape:pageopacity="0.0"
     inkscape:pagecheckerboard="0"
     inkscape:deskcolor="#d1d1d1"
     inkscape:zoom="53"
     inkscape:cx="8"
     inkscape:cy="8"
     inkscape:window-width="1875"
     inkscape:window-height="1052"
     inkscape:window-x="45"
     inkscape:window-y="0"
     inkscape:window-maximized="1"
     inkscape:current-layer="svg2" />
  <g
     stroke-miterlimit="10"
     id="g1"
     style="display:inline">
    <rect
       x="0.26458001"
       y="0.52916998"
       width="3.7042"
       height="3.175"
       fill="#ffffff"
       stroke-width="0"
       id="rect1" />
    <path
       d="M 0.52917,0 C 0.23601,0 0,0.23601 0,0.52917 v 3.175 c 0,0.29316 0.23601,0.52917 0.52917,0.52917 h 3.175 c 0.29316,0 0.52917,-0.23601 0.52917,-0.52917 v -3.175 C 4.23334,0.23601 3.99733,0 3.70417,0 Z m 0.74981,0.76265 h 1.0777 c 0.62866,0 0.76338,0.40486 0.31435,1.2145 L 2.596144,2.11204 C 2.521244,2.24698 2.356634,2.3819 2.266834,2.3819 h -1.7962 C 0.380835,2.3819 0.38089,2.21999 0.440788,2.11204 l 0.67351,-1.2144 c 0.0449,-0.081 0.11077,-0.13497 0.16466,-0.13497 z m 0.92029,0.22206 v 1.1751 H 2.37692 V 0.98471 Z M 1.57025,1.000618 1.46174,1.121098 1.79097,1.486318 H 0.95202 v 0.17025 h 0.83895 l -0.32923,0.36522 0.10851,0.12056 0.46003,-0.51066 v -0.12048 z m 1.5196,0.84391 0.66303,7.74e-5 c 0.0972,0 0.10801,0.12017 0.024411,0.26947 l -0.60405,1.0779 c -0.08366,0.14929 -0.22922,0.26955 -0.32632,0.26955 h -2.3673 c -0.0972,0 -0.10801,-0.12025 -0.02441,-0.26955 l 0.15095,-0.37687 h 1.7952 c 0.09343,0 0.26474,-0.13482 0.34254,-0.26954 l 0.0778,-0.097329 c 0.15571,-0.26948 0.24401,-0.42401 0.26821,-0.60366 z"
       fill="#0d7af6"
       stroke-width="0.0125"
       id="path1" />
  </g>
  <g
     id="g2"
     style="display:none"
     inkscape:label="logged-out">
    <path
       d="M 3.6034,2.4246 3.14449,3.07813 C 3.06083,3.22742 2.91155,3.32224 2.8179,3.34788 L 2.40194,3.46174 C 2.4026786,3.75541 2.5266,4.0353 2.74352,4.23326 h 0.96066 c 0.29316,0 0.52916,-0.21116 0.52916,-0.52916 V 2.76515 C 4.06986,2.5812 3.84686,2.46064 3.60341,2.42461 Z"
       fill="#ffffff"
       id="path2" />
    <circle
       cx="3.4498"
       cy="3.4614999"
       r="0.64208001"
       fill="#5e5c64"
       style="paint-order:stroke fill markers"
       id="circle2" />
  </g>
</svg>
