<svg width="16" height="16" version="1.1" viewBox="0 0 4.2333 4.2333" xmlns="http://www.w3.org/2000/svg"><g stroke-miterlimit="10"><rect x=".26458" y=".52917" width="3.7042" height="3.175" fill="#fff" stroke-width="0"/><path d="m0.52917 0c-0.29316 0-0.52917 0.23601-0.52917 0.52917v3.175c0 0.29316 0.23601 0.52917 0.52917 0.52917h3.175c0.29316 0 0.52917-0.23601 0.52917-0.52917v-3.175c0-0.29316-0.23601-0.52917-0.52917-0.52917zm0.74981 0.76265h1.0777c0.62866 0 0.76338 0.40486 0.31435 1.2145l-0.074886 0.13489c-0.0749 0.13494-0.23951 0.26986-0.32931 0.26986h-1.7962c-0.089799 0-0.089744-0.16191-0.029846-0.26986l0.67351-1.2144c0.0449-0.081 0.11077-0.13497 0.16466-0.13497zm0.92029 0.22206v1.1751h0.17765v-1.1751zm-0.62902 0.015908-0.10851 0.12048 0.32923 0.36522h-0.83895v0.17025h0.83895l-0.32923 0.36522 0.10851 0.12056 0.46003-0.51066v-0.12048zm1.5196 0.84391 0.66303 7.74e-5c0.0972 0 0.10801 0.12017 0.024411 0.26947l-0.60405 1.0779c-0.08366 0.14929-0.22922 0.26955-0.32632 0.26955h-2.3673c-0.0972 0-0.10801-0.12025-0.02441-0.26955l0.15095-0.37687h1.7952c0.09343 0 0.26474-0.13482 0.34254-0.26954l0.0778-0.097329c0.15571-0.26948 0.24401-0.42401 0.26821-0.60366z" fill="#0d7af6" stroke-width=".0125"/></g></svg>
