<svg xmlns="http://www.w3.org/2000/svg" width="185" height="185"><g><path d="M135.476 12.134v10.76l-20.802 2.459q2.869 3.586 5.123 9.427 2.255 5.739 2.255 13.014 0 16.499-11.272 26.336t-30.947 9.837q-5.021 0-9.428-.82-10.862 5.74-10.862 14.45 0 4.61 3.792 6.865 3.791 2.152 13.014 2.152h19.88q18.24 0 27.975 7.685 9.837 7.686 9.837 22.34 0 18.65-14.96 28.385-14.962 9.837-43.654 9.837-22.032 0-34.022-8.198-11.886-8.198-11.886-23.159 0-10.247 6.558-17.728 6.558-7.48 18.445-10.144-4.304-1.947-7.276-6.046-2.869-4.1-2.869-9.53 0-6.149 3.28-10.76 3.278-4.611 10.35-8.915-8.711-3.587-14.245-12.194-5.43-8.608-5.43-19.675 0-18.445 11.066-28.385 11.067-10.043 31.357-10.043 8.813 0 15.884 2.05zM45.914 143.299q0 9.12 7.686 13.834 7.685 4.714 22.032 4.714 21.416 0 31.664-6.456 10.35-6.353 10.35-17.318 0-9.12-5.637-12.706-5.636-3.485-21.211-3.485H70.405q-11.58 0-18.035 5.534-6.456 5.534-6.456 15.883zm9.223-95.197q0 11.784 6.66 17.83 6.661 6.046 18.548 6.046 24.901 0 24.901-24.184 0-25.31-25.208-25.31-11.99 0-18.445 6.455-6.456 6.456-6.456 19.163z" style="line-height:1.25;-inkscape-font-specification:'Open Sans'" font-weight="400" font-size="209.865" font-family="Open Sans" letter-spacing="0" word-spacing="0"/><path d="M150.827 10h5.135v165h-5.135z"/></g>
<style>
g {
    fill: #1a1a1a;
}
@media (prefers-color-scheme: dark) {
    g {
        fill: #f9f9f9;
    }
}
</style>
</svg>
