<?xml version="1.0" encoding="UTF-8" standalone="no"?>
<svg
   width="32"
   height="32"
   version="1.1"
   viewBox="0 0 8.4667 8.4667"
   id="svg2"
   sodipodi:docname="icon-medium.svg"
   inkscape:version="1.3 (0e150ed6c4, 2023-07-21)"
   xmlns:inkscape="http://www.inkscape.org/namespaces/inkscape"
   xmlns:sodipodi="http://sodipodi.sourceforge.net/DTD/sodipodi-0.dtd"
   xmlns="http://www.w3.org/2000/svg"
   xmlns:svg="http://www.w3.org/2000/svg">
  <defs
     id="defs2" />
  <sodipodi:namedview
     id="namedview2"
     pagecolor="#ffffff"
     bordercolor="#666666"
     borderopacity="1.0"
     inkscape:showpageshadow="2"
     inkscape:pageopacity="0.0"
     inkscape:pagecheckerboard="0"
     inkscape:deskcolor="#d1d1d1"
     inkscape:zoom="26.5"
     inkscape:cx="16"
     inkscape:cy="16"
     inkscape:window-width="1875"
     inkscape:window-height="1052"
     inkscape:window-x="45"
     inkscape:window-y="0"
     inkscape:window-maximized="1"
     inkscape:current-layer="g2" />
  <rect
     x=".79375"
     y="1.8521"
     width="6.8792"
     height="4.7625"
     fill="#fff"
     stroke-miterlimit="10"
     stroke-width="1.0001"
     style="paint-order:stroke fill markers"
     id="rect1" />
  <path
     d="m0.99223 0c-0.54967 0-0.99223 0.44257-0.99223 0.99223v6.4822c0 0.54967 0.44258 0.99223 0.99223 0.99223h6.4822c0.54967 0 0.99223-0.44258 0.99223-0.99223v-6.4822c0-0.54967-0.44258-0.99223-0.99223-0.99223zm1.724 2.3474h2.0531c1.1977 0 1.4543 0.58871 0.5988 1.7662l-0.14255 0.19625c-0.14258 0.19624-0.4562 0.39251-0.62729 0.39251h-3.4219c-0.17109 0-0.17115-0.23551-0.057091-0.39251l1.2832-1.7662c0.085544-0.11775 0.21104-0.19625 0.3137-0.19625zm0.95222 0.27505c-0.00206 1.42e-5 -0.00398 8.53e-5 -0.00604 2.345e-4 -0.058313 0.00497-0.11721 0.067864-0.087561 0.14371l0.20139 0.51474c-0.041585-7.106e-4 -0.072035 0-0.072035 0h-1.2243c-0.049778 0-0.090482 0.045195-0.090482 0.1004 0 0.055215 0.04069 0.09994 0.090482 0.09994h1.1369l-0.6692 0.43652c-0.10428 0.072695-0.012052 0.23953 0.092231 0.16683l0.88819-0.59459s0.020821-0.014141 0.039688-0.027785c0.015769-0.011441 0.031757-0.025724 0.031757-0.025724 0.013694-0.015278 0.019542-0.059763 0.00462-0.09643l-3.617e-4 -0.00142c-6.396e-4 -0.00142-0.00114-0.00284-0.00185-0.00497l-0.25766-0.65601c-0.015591-0.039865-0.045181-0.056565-0.075773-0.056352zm1.1226 0.014426a0.10324 0.11385 32.132 0 0-0.094568 0.059336l-0.80548 1.3752a0.10325 0.11385 32.132 0 0 0.17886 0.1032l0.80555-1.3753a0.10324 0.11385 32.132 0 0-0.031992-0.14979 0.10324 0.11385 32.132 0 0-0.052422-0.012578zm1.262 1.2584h1.237c0.18126 0 0.2015 0.17495 0.045415 0.39238l-1.127 1.5699c-0.15609 0.21743-0.4277 0.39251-0.60896 0.39251h-4.417c-0.18126 0-0.20162-0.17507-0.045536-0.39251l0.28183-0.39239h3.3493c0.17432 0 0.49393-0.19627 0.6392-0.39251l0.14524-0.19625c0.29054-0.39249 0.45519-0.7195 0.50039-0.98114z"
     fill="#0d7af6"
     stroke-width=".71061"
     id="path1" />
  <g
     id="g2"
     inkscape:label="logged-out">
    <path
       d="m6.9923 5.0271c-0.066175 0.00111-0.13224 0.00577-0.19792 0.013953l-0.61843 0.76129c-0.15609 0.21743-0.43025 0.36119-0.60875 0.39274l-0.31226 0.055197c-0.074404 0.2014-0.11322 0.4142-0.11472 0.6289 0.00131 0.65138 0.3447 1.2542 0.90434 1.5875h1.4299c0.58274 0 0.99219-0.44254 0.99219-0.99219v-1.7151c-0.35-0.46107-0.89546-0.73198-1.4743-0.73226z"
       fill="#fff"
       stroke-width=".71061"
       id="path2" />
    <circle
       cx="6.9921"
       cy="6.8792"
       r="1.3511"
       fill="#5e5c64"
       style="paint-order:stroke fill markers"
       id="circle2" />
  </g>
</svg>
