<?xml version="1.0" encoding="UTF-8" standalone="no"?>
<svg
   xmlns:dc="http://purl.org/dc/elements/1.1/"
   xmlns:cc="http://creativecommons.org/ns#"
   xmlns:rdf="http://www.w3.org/1999/02/22-rdf-syntax-ns#"
   xmlns:svg="http://www.w3.org/2000/svg"
   xmlns="http://www.w3.org/2000/svg"
   xmlns:sodipodi="http://sodipodi.sourceforge.net/DTD/sodipodi-0.dtd"
   xmlns:inkscape="http://www.inkscape.org/namespaces/inkscape"
   width="38mm"
   height="38mm"
   viewBox="0 0 38 38"
   version="1.1"
   id="svg1282"
   sodipodi:docname="icon.svg"
   inkscape:version="1.0.2 (e86c870879, 2021-01-15, custom)"
   inkscape:export-filename="./icon-64.png"
   inkscape:export-xdpi="42.779999"
   inkscape:export-ydpi="42.779999">
  <sodipodi:namedview
     pagecolor="#ffffff"
     bordercolor="#666666"
     borderopacity="1"
     objecttolerance="10"
     gridtolerance="10"
     guidetolerance="10"
     inkscape:pageopacity="0"
     inkscape:pageshadow="2"
     inkscape:window-width="1875"
     inkscape:window-height="1051"
     id="namedview8"
     showgrid="true"
     inkscape:zoom="4.3473499"
     inkscape:cx="62.328895"
     inkscape:cy="79.511244"
     inkscape:window-x="45"
     inkscape:window-y="0"
     inkscape:window-maximized="1"
     inkscape:current-layer="svg1282"
     inkscape:document-rotation="0">
    <inkscape:grid
       type="xygrid"
       id="grid833" />
  </sodipodi:namedview>
  <defs
     id="defs1276" />
  <metadata
     id="metadata1279">
    <rdf:RDF>
      <cc:Work
         rdf:about="">
        <dc:format>image/svg+xml</dc:format>
        <dc:type
           rdf:resource="http://purl.org/dc/dcmitype/StillImage" />
        <dc:title />
      </cc:Work>
    </rdf:RDF>
  </metadata>
  <g
     id="layer1"
     transform="matrix(1.0035924,0,0,1.0026316,-113.82864,-148.31592)">
    <path
       d="m 132.88659,147.92663 c 3.68786,0 6.68658,0.81961 8.99614,2.45882 2.30957,1.60196 3.46435,4.32157 3.46435,8.15883 0,1.41568 -0.33525,2.70098 -1.00577,3.85588 -0.63327,1.11765 -1.47142,2.08628 -2.51446,2.90588 1.71356,0.89412 3.11047,2.1049 4.19076,3.63236 1.11753,1.52745 1.67629,3.4647 1.67629,5.81176 0,3.50196 -1.22928,6.24019 -3.68786,8.21471 -2.42131,1.97451 -5.66216,2.96176 -9.72253,2.96176 h -15.58959 v -38 z"
       id="path1243"
       style="fill:#0607fb" />
    <path
       id="path1245"
       style="fill:#0983fa"
       d="m 118.69391,147.92669 v 20.05518 a 20.240457,20.242517 0 0 0 11.01519,3.26006 20.240457,20.242517 0 0 0 13.46005,-5.12465 c -0.42371,-0.29411 -0.87062,-0.56515 -1.34231,-0.81128 1.04303,-0.8196 1.88128,-1.78812 2.51454,-2.90576 0.67053,-1.15491 1.00581,-2.44016 1.00581,-3.85584 0,-3.83725 -1.15493,-6.55709 -3.4645,-8.15906 -2.30958,-1.63921 -5.30836,-2.45865 -8.99621,-2.45865 z" />
  </g>
</svg>
