<?xml version="1.0" encoding="UTF-8" standalone="no"?>
<svg
   xmlns:dc="http://purl.org/dc/elements/1.1/"
   xmlns:cc="http://creativecommons.org/ns#"
   xmlns:rdf="http://www.w3.org/1999/02/22-rdf-syntax-ns#"
   xmlns:svg="http://www.w3.org/2000/svg"
   xmlns="http://www.w3.org/2000/svg"
   xmlns:xlink="http://www.w3.org/1999/xlink"
   xmlns:sodipodi="http://sodipodi.sourceforge.net/DTD/sodipodi-0.dtd"
   xmlns:inkscape="http://www.inkscape.org/namespaces/inkscape"
   inkscape:export-ydpi="96"
   inkscape:export-xdpi="96"
   inkscape:export-filename="./logo-edge.png"
   sodipodi:docname="logo-edge.svg"
   inkscape:version="1.0.2 (e86c870879, 2021-01-15, custom)"
   id="svg8"
   version="1.1"
   viewBox="0 0 79.374995 79.375001"
   height="300"
   width="300">
  <defs
     id="defs2">
    <linearGradient
       gradientTransform="matrix(0.125,0,0,-0.125,3584.6055,3978.0549)"
       y2="-13365.935"
       x2="56717.496"
       y1="43958.855"
       x1="-607.29572"
       gradientUnits="userSpaceOnUse"
       id="linearGradient1854">
      <stop
         id="stop1850"
         style="stop-color:#4c4ce5;stop-opacity:1"
         offset="0" />
      <stop
         id="stop1852"
         style="stop-color:#345bd0;stop-opacity:0.00047875"
         offset="1" />
    </linearGradient>
    <path
       id="SVGID_1_"
       d="M 11211.062,0 H 820.322 C 369.145,0 0,369.145 0,820.322 v 7109.454 c 0,451.177 369.145,820.322 820.322,820.322 h 10390.741 c 451.177,0 820.321,-369.145 820.321,-820.322 V 820.322 C 12031.384,369.145 11662.239,0 11211.062,0 Z" />
    <path
       id="SVGID_4_"
       d="M 11211.062,0 H 820.322 C 369.145,0 0,369.145 0,820.322 v 7109.454 c 0,451.177 369.145,820.322 820.322,820.322 h 10390.741 c 451.177,0 820.321,-369.145 820.321,-820.322 V 820.322 C 12031.384,369.145 11662.239,0 11211.062,0 Z" />
    <path
       id="SVGID_1_-1"
       d="M 11211.062,0 H 820.322 C 369.145,0 0,369.145 0,820.322 v 7109.454 c 0,451.177 369.145,820.322 820.322,820.322 h 10390.741 c 451.177,0 820.321,-369.145 820.321,-820.322 V 820.322 C 12031.384,369.145 11662.239,0 11211.062,0 Z" />
    <path
       id="SVGID_4_-5"
       d="M 11211.062,0 H 820.322 C 369.145,0 0,369.145 0,820.322 v 7109.454 c 0,451.177 369.145,820.322 820.322,820.322 h 10390.741 c 451.177,0 820.321,-369.145 820.321,-820.322 V 820.322 C 12031.384,369.145 11662.239,0 11211.062,0 Z" />
    <radialGradient
       gradientUnits="userSpaceOnUse"
       gradientTransform="matrix(0.36578442,0,0,0.55808347,-27.74208,-40.915281)"
       r="169.53177"
       fy="179.40314"
       fx="228.98735"
       cy="179.40314"
       cx="228.98735"
       id="radialGradient1859"
       xlink:href="#linearGradient1854"
       inkscape:collect="always" />
    <linearGradient
       id="linearGradient3787">
      <stop
         id="stop3789"
         offset="0"
         style="stop-color:#16a085;stop-opacity:1;" />
      <stop
         id="stop3791"
         offset="1"
         style="stop-color:#19b899;stop-opacity:1;" />
    </linearGradient>
    <linearGradient
       id="linearGradient3890">
      <stop
         id="stop3892"
         offset="0"
         style="stop-color:#067b82;stop-opacity:1;" />
      <stop
         id="stop3894"
         offset="1"
         style="stop-color:#067b82;stop-opacity:0;" />
    </linearGradient>
    <linearGradient
       id="linearGradient3764">
      <stop
         id="stop3766"
         offset="0"
         style="stop-color:#0f2729;stop-opacity:1;" />
      <stop
         style="stop-color:#020606;stop-opacity:1;"
         offset="1"
         id="stop3772" />
    </linearGradient>
    <clipPath
       id="clipPath2157"
       clipPathUnits="userSpaceOnUse">
      <path
         d="m 469.77879,-103.43487 a 70.555551,70.555551 0 0 1 -70.55556,70.555552 70.555551,70.555551 0 0 1 -70.55554,-70.555552 70.555551,70.555551 0 0 1 70.55554,-70.55555 70.555551,70.555551 0 0 1 70.55556,70.55555 z"
         style="opacity:1;fill:#4d4d4d;fill-opacity:1;fill-rule:evenodd;stroke:none;stroke-width:0.177;stroke-linecap:round;stroke-miterlimit:4;stroke-dasharray:none;stroke-opacity:1"
         id="path2159" />
    </clipPath>
    <clipPath
       id="clipPath2163"
       clipPathUnits="userSpaceOnUse">
      <circle
         r="70.55555"
         cy="50.309822"
         cx="380.36462"
         id="circle2165"
         style="opacity:1;fill:#4d4d4d;fill-opacity:1;fill-rule:evenodd;stroke:none;stroke-width:0.177;stroke-linecap:round;stroke-miterlimit:4;stroke-dasharray:none;stroke-opacity:1" />
    </clipPath>
    <clipPath
       id="clipPath2228"
       clipPathUnits="userSpaceOnUse">
      <rect
         y="159.05936"
         x="68.511642"
         height="9.9911823"
         width="91.110847"
         id="rect2230"
         style="opacity:1;fill:#f9f9f9;fill-opacity:1;fill-rule:evenodd;stroke:none;stroke-width:0.7;stroke-linecap:round;stroke-miterlimit:4;stroke-dasharray:none;stroke-opacity:1" />
    </clipPath>
  </defs>
  <sodipodi:namedview
     inkscape:guide-bbox="true"
     showguides="false"
     inkscape:window-maximized="1"
     inkscape:window-y="0"
     inkscape:window-x="45"
     inkscape:window-height="1051"
     inkscape:window-width="1875"
     units="px"
     showgrid="false"
     inkscape:document-rotation="0"
     inkscape:current-layer="layer1"
     inkscape:document-units="mm"
     inkscape:cy="164.37198"
     inkscape:cx="121.21711"
     inkscape:zoom="1.3471008"
     inkscape:pageshadow="2"
     inkscape:pageopacity="1"
     borderopacity="1.0"
     bordercolor="#666666"
     pagecolor="#0983fa"
     id="base">
    <inkscape:grid
       id="grid851"
       type="xygrid" />
  </sodipodi:namedview>
  <metadata
     id="metadata5">
    <rdf:RDF>
      <cc:Work
         rdf:about="">
        <dc:format>image/svg+xml</dc:format>
        <dc:type
           rdf:resource="http://purl.org/dc/dcmitype/StillImage" />
        <dc:title></dc:title>
      </cc:Work>
    </rdf:RDF>
  </metadata>
  <rect
     inkscape:label="bg-fade"
     y="0"
     x="0"
     height="79.375"
     width="79.375"
     id="rect1840"
     style="opacity:1;fill:url(#radialGradient1859);fill-opacity:1;fill-rule:evenodd;stroke:none;stroke-width:0.117659;stroke-linecap:round;stroke-opacity:1" />
  <g
     style="display:inline"
     id="layer1"
     inkscape:groupmode="layer"
     inkscape:label="promo-small">
    <g
       id="layer1-3"
       transform="matrix(1.3614677,0,0,1.3601643,-139.80373,-187.36014)">
      <path
         d="m 132.88659,147.92663 c 3.68786,0 6.68658,0.81961 8.99614,2.45882 2.30957,1.60196 3.46435,4.32157 3.46435,8.15883 0,1.41568 -0.33525,2.70098 -1.00577,3.85588 -0.63327,1.11765 -1.47142,2.08628 -2.51446,2.90588 1.71356,0.89412 3.11047,2.1049 4.19076,3.63236 1.11753,1.52745 1.67629,3.4647 1.67629,5.81176 0,3.50196 -1.22928,6.24019 -3.68786,8.21471 -2.42131,1.97451 -5.66216,2.96176 -9.72253,2.96176 h -15.58959 v -38 z"
         id="path1243"
         style="fill:#ffffff;fill-opacity:0.6" />
      <path
         id="path1245"
         style="fill:#ffffff;fill-opacity:1"
         d="m 118.69391,147.92669 v 20.05518 a 20.240457,20.242517 0 0 0 11.01519,3.26006 20.240457,20.242517 0 0 0 13.46005,-5.12465 c -0.42371,-0.29411 -0.87062,-0.56515 -1.34231,-0.81128 1.04303,-0.8196 1.88128,-1.78812 2.51454,-2.90576 0.67053,-1.15491 1.00581,-2.44016 1.00581,-3.85584 0,-3.83725 -1.15493,-6.55709 -3.4645,-8.15906 -2.30958,-1.63921 -5.30836,-2.45865 -8.99621,-2.45865 z" />
    </g>
  </g>
</svg>
