<?xml version="1.0" encoding="UTF-8" standalone="no"?>
<svg
   xmlns:dc="http://purl.org/dc/elements/1.1/"
   xmlns:cc="http://creativecommons.org/ns#"
   xmlns:rdf="http://www.w3.org/1999/02/22-rdf-syntax-ns#"
   xmlns:svg="http://www.w3.org/2000/svg"
   xmlns="http://www.w3.org/2000/svg"
   xmlns:xlink="http://www.w3.org/1999/xlink"
   xmlns:sodipodi="http://sodipodi.sourceforge.net/DTD/sodipodi-0.dtd"
   xmlns:inkscape="http://www.inkscape.org/namespaces/inkscape"
   width="1400"
   height="560"
   viewBox="0 0 370.41664 148.16667"
   version="1.1"
   id="svg8"
   inkscape:version="1.0.2 (e86c870879, 2021-01-15, custom)"
   sodipodi:docname="promo-marquee.svg"
   inkscape:export-filename="./promo-marquee.png"
   inkscape:export-xdpi="96"
   inkscape:export-ydpi="96">
  <defs
     id="defs2">
    <linearGradient
       id="linearGradient1854"
       gradientUnits="userSpaceOnUse"
       x1="-607.29572"
       y1="43958.855"
       x2="56717.496"
       y2="-13365.935"
       gradientTransform="matrix(0.125,0,0,-0.125,3584.6055,3978.0549)">
      <stop
         offset="0"
         style="stop-color:#0607fb;stop-opacity:0.52156866"
         id="stop1850" />
      <stop
         offset="1"
         style="stop-color:#345bd0;stop-opacity:0.00047875"
         id="stop1852" />
    </linearGradient>
    <path
       d="M 11211.062,0 H 820.322 C 369.145,0 0,369.145 0,820.322 v 7109.454 c 0,451.177 369.145,820.322 820.322,820.322 h 10390.741 c 451.177,0 820.321,-369.145 820.321,-820.322 V 820.322 C 12031.384,369.145 11662.239,0 11211.062,0 Z"
       id="SVGID_1_" />
    <path
       d="M 11211.062,0 H 820.322 C 369.145,0 0,369.145 0,820.322 v 7109.454 c 0,451.177 369.145,820.322 820.322,820.322 h 10390.741 c 451.177,0 820.321,-369.145 820.321,-820.322 V 820.322 C 12031.384,369.145 11662.239,0 11211.062,0 Z"
       id="SVGID_4_" />
    <path
       d="M 11211.062,0 H 820.322 C 369.145,0 0,369.145 0,820.322 v 7109.454 c 0,451.177 369.145,820.322 820.322,820.322 h 10390.741 c 451.177,0 820.321,-369.145 820.321,-820.322 V 820.322 C 12031.384,369.145 11662.239,0 11211.062,0 Z"
       id="SVGID_1_-1" />
    <path
       d="M 11211.062,0 H 820.322 C 369.145,0 0,369.145 0,820.322 v 7109.454 c 0,451.177 369.145,820.322 820.322,820.322 h 10390.741 c 451.177,0 820.321,-369.145 820.321,-820.322 V 820.322 C 12031.384,369.145 11662.239,0 11211.062,0 Z"
       id="SVGID_4_-5" />
    <radialGradient
       inkscape:collect="always"
       xlink:href="#linearGradient1854"
       id="radialGradient1859"
       cx="223.08536"
       cy="165.56543"
       fx="223.08536"
       fy="165.56543"
       r="169.53177"
       gradientTransform="matrix(1.0074401,0,0,0.811549,29.254858,-33.822788)"
       gradientUnits="userSpaceOnUse" />
    <linearGradient
       id="linearGradient3787">
      <stop
         style="stop-color:#16a085;stop-opacity:1;"
         offset="0"
         id="stop3789" />
      <stop
         style="stop-color:#19b899;stop-opacity:1;"
         offset="1"
         id="stop3791" />
    </linearGradient>
    <linearGradient
       id="linearGradient3890">
      <stop
         style="stop-color:#067b82;stop-opacity:1;"
         offset="0"
         id="stop3892" />
      <stop
         style="stop-color:#067b82;stop-opacity:0;"
         offset="1"
         id="stop3894" />
    </linearGradient>
    <linearGradient
       id="linearGradient3764">
      <stop
         style="stop-color:#0f2729;stop-opacity:1;"
         offset="0"
         id="stop3766" />
      <stop
         id="stop3772"
         offset="1"
         style="stop-color:#020606;stop-opacity:1;" />
    </linearGradient>
    <clipPath
       clipPathUnits="userSpaceOnUse"
       id="clipPath2157">
      <path
         id="path2159"
         style="opacity:1;fill:#4d4d4d;fill-opacity:1;fill-rule:evenodd;stroke:none;stroke-width:0.177;stroke-linecap:round;stroke-miterlimit:4;stroke-dasharray:none;stroke-opacity:1"
         d="m 469.77879,-103.43487 a 70.555551,70.555551 0 0 1 -70.55556,70.555552 70.555551,70.555551 0 0 1 -70.55554,-70.555552 70.555551,70.555551 0 0 1 70.55554,-70.55555 70.555551,70.555551 0 0 1 70.55556,70.55555 z" />
    </clipPath>
    <clipPath
       clipPathUnits="userSpaceOnUse"
       id="clipPath2163">
      <circle
         style="opacity:1;fill:#4d4d4d;fill-opacity:1;fill-rule:evenodd;stroke:none;stroke-width:0.177;stroke-linecap:round;stroke-miterlimit:4;stroke-dasharray:none;stroke-opacity:1"
         id="circle2165"
         cx="380.36462"
         cy="50.309822"
         r="70.55555" />
    </clipPath>
    <clipPath
       clipPathUnits="userSpaceOnUse"
       id="clipPath2228">
      <rect
         style="opacity:1;fill:#f9f9f9;fill-opacity:1;fill-rule:evenodd;stroke:none;stroke-width:0.7;stroke-linecap:round;stroke-miterlimit:4;stroke-dasharray:none;stroke-opacity:1"
         id="rect2230"
         width="91.110847"
         height="9.9911823"
         x="68.511642"
         y="159.05936" />
    </clipPath>
    <clipPath
       id="SVGID_2_">
      <use
         id="use1703"
         overflow="visible"
         xlink:href="#SVGID_1_-1"
         x="0"
         y="0"
         width="100%"
         height="100%" />
    </clipPath>
    <linearGradient
       gradientTransform="matrix(0.125,0,0,-0.125,3584.6055,3978.0549)"
       y2="-13365.935"
       x2="56717.496"
       y1="43958.855"
       x1="-607.29572"
       gradientUnits="userSpaceOnUse"
       id="SVGID_3_">
      <stop
         id="stop1722"
         style="stop-color:#262626;stop-opacity:0.2"
         offset="0" />
      <stop
         id="stop1724"
         style="stop-color:#262626;stop-opacity:0.02"
         offset="1" />
    </linearGradient>
    <clipPath
       id="SVGID_5_">
      <use
         id="use1732"
         overflow="visible"
         xlink:href="#SVGID_4_-5"
         x="0"
         y="0"
         width="100%"
         height="100%" />
    </clipPath>
    <radialGradient
       gradientUnits="userSpaceOnUse"
       gradientTransform="matrix(0.125,0,0,-0.125,3584.6055,3978.0549)"
       r="113676.78"
       cy="30192.488"
       cx="-26516.443"
       id="SVGID_6_">
      <stop
         id="stop1759"
         style="stop-color:#FFFFFF;stop-opacity:0.1"
         offset="0" />
      <stop
         id="stop1761"
         style="stop-color:#FFFFFF;stop-opacity:0"
         offset="1" />
    </radialGradient>
    <path
       id="path982"
       d="M 11211.062,0 H 820.322 C 369.145,0 0,369.145 0,820.322 v 7109.454 c 0,451.177 369.145,820.322 820.322,820.322 h 10390.741 c 451.177,0 820.321,-369.145 820.321,-820.322 V 820.322 C 12031.384,369.145 11662.239,0 11211.062,0 Z" />
    <path
       id="path1014"
       d="M 11211.062,0 H 820.322 C 369.145,0 0,369.145 0,820.322 v 7109.454 c 0,451.177 369.145,820.322 820.322,820.322 h 10390.741 c 451.177,0 820.321,-369.145 820.321,-820.322 V 820.322 C 12031.384,369.145 11662.239,0 11211.062,0 Z" />
    <radialGradient
       gradientUnits="userSpaceOnUse"
       gradientTransform="matrix(0.125,0,0,-0.125,3584.6055,3978.0549)"
       r="113676.78"
       cy="30192.488"
       cx="-26516.443"
       id="radialGradient1050">
      <stop
         id="stop1046"
         style="stop-color:#FFFFFF;stop-opacity:0.1"
         offset="0" />
      <stop
         id="stop1048"
         style="stop-color:#FFFFFF;stop-opacity:0"
         offset="1" />
    </radialGradient>
    <filter
       inkscape:collect="always"
       style="color-interpolation-filters:sRGB"
       id="filter931"
       x="-0.041999999"
       width="1.084"
       y="-0.056000001"
       height="1.112">
      <feGaussianBlur
         inkscape:collect="always"
         stdDeviation="2.3151042"
         id="feGaussianBlur933" />
    </filter>
  </defs>
  <sodipodi:namedview
     id="base"
     pagecolor="#0983fa"
     bordercolor="#666666"
     borderopacity="1.0"
     inkscape:pageopacity="1"
     inkscape:pageshadow="2"
     inkscape:zoom="0.47627206"
     inkscape:cx="800.28557"
     inkscape:cy="417.29707"
     inkscape:document-units="mm"
     inkscape:current-layer="svg8"
     inkscape:document-rotation="0"
     showgrid="true"
     units="px"
     inkscape:window-width="1875"
     inkscape:window-height="1051"
     inkscape:window-x="45"
     inkscape:window-y="0"
     inkscape:window-maximized="1"
     showguides="false"
     inkscape:guide-bbox="true">
    <inkscape:grid
       type="xygrid"
       id="grid851" />
  </sodipodi:namedview>
  <metadata
     id="metadata5">
    <rdf:RDF>
      <cc:Work
         rdf:about="">
        <dc:format>image/svg+xml</dc:format>
        <dc:type
           rdf:resource="http://purl.org/dc/dcmitype/StillImage" />
        <dc:title></dc:title>
      </cc:Work>
    </rdf:RDF>
  </metadata>
  <rect
     style="opacity:1;fill:url(#radialGradient1859);fill-opacity:1;fill-rule:evenodd;stroke:none;stroke-width:0.347265;stroke-linecap:round;stroke-opacity:1"
     id="rect1840"
     width="370.41666"
     height="148.16667"
     x="0"
     y="0"
     inkscape:label="bg-fade"
     sodipodi:insensitive="true" />
  <text
     xml:space="preserve"
     style="font-style:normal;font-variant:normal;font-weight:normal;font-stretch:normal;font-size:11.4997px;line-height:12.8366px;font-family:'Open Sans';-inkscape-font-specification:'Open Sans';letter-spacing:0px;word-spacing:0px;fill:#ffffff;fill-opacity:1;stroke:none;stroke-width:0.286595px;stroke-linecap:butt;stroke-linejoin:miter;stroke-opacity:1"
     x="33.029171"
     y="67.406685"
     id="text871"><tspan
       id="tspan1108"
       sodipodi:role="line"
       x="33.029171"
       y="67.406685"
       style="font-style:normal;font-variant:normal;font-weight:normal;font-stretch:normal;font-size:11.4997px;font-family:Lato;-inkscape-font-specification:Lato;fill:#ffffff;stroke-width:0.286595px">Email templates &amp; shortcuts</tspan></text>
  <g
     id="g925"
     transform="translate(116.20502,-33.708073)">
    <rect
       transform="matrix(0.96657919,0,0,0.96657919,7.8629626,6.9119337)"
       style="display:inline;opacity:1;fill:#1e48b3;fill-opacity:0.38219;fill-rule:evenodd;stroke-width:0.261465;stroke-linecap:round;filter:url(#filter931)"
       id="rect1102"
       width="132.29167"
       height="99.21875"
       x="89.958328"
       y="97.830429"
       rx="5.2083335"
       ry="5.2083335" />
    <rect
       ry="5"
       rx="5"
       y="105.60918"
       x="100.33"
       height="87.62999"
       width="116.83999"
       id="rect1119"
       style="display:inline;opacity:1;fill:#ffffff;fill-opacity:1;fill-rule:evenodd;stroke-width:0.230926;stroke-linecap:round" />
    <g
       id="g1044"
       transform="matrix(7.7126042e-4,0,0,7.7126042e-4,108.28095,114.47495)"
       inkscape:label="gmail-logo">
      <rect
         x="1367.203"
         y="1982.444"
         fill="#e1e1e1"
         width="9296.9775"
         height="6767.6528"
         id="rect980" />
      <path
         id="path1002"
         style="fill:#db4437;fill-opacity:1;stroke-width:0.002915"
         d="m 411.64258,432.66211 c -1.31518,0 -2.39258,1.07544 -2.39258,2.39062 v 20.72461 c 0,1.31519 1.0774,2.39063 2.39258,2.39063 h 1.59375 v -19.12695 l 13.55078,9.27148 13.55078,-9.27344 v 19.12891 h 1.59375 c 1.31518,0 2.39063,-1.07545 2.39063,-2.39063 v -20.72461 c 0,-1.31518 -1.07545,-2.39062 -2.39063,-2.39062 l -15.14453,10.36133 z"
         transform="matrix(343.05317,0,0,343.05317,-140394.8,-148425.81)" />
      <linearGradient
         id="linearGradient1010"
         gradientUnits="userSpaceOnUse"
         x1="-607.29572"
         y1="43958.855"
         x2="56717.496"
         y2="-13365.935"
         gradientTransform="matrix(0.125,0,0,-0.125,3584.6055,3978.0549)">
        <stop
           offset="0"
           style="stop-color:#262626;stop-opacity:0.2"
           id="stop1006" />
        <stop
           offset="1"
           style="stop-color:#262626;stop-opacity:0.02"
           id="stop1008" />
      </linearGradient>
      <polygon
         fill="#f1f1f1"
         points="820.322,0 6015.692,3554.727 11211.062,0 "
         id="polygon1040" />
    </g>
    <rect
       y="116.22647"
       x="123.04888"
       height="3.245548"
       width="37.323879"
       id="rect1121"
       style="display:inline;opacity:1;fill:#f9f9f9;fill-opacity:0.988338;fill-rule:evenodd;stroke-width:0.137577;stroke-linecap:round" />
    <text
       id="text1166"
       y="139.89149"
       x="122.42766"
       style="font-style:normal;font-weight:normal;font-size:9.08757px;line-height:5.67972px;font-family:sans-serif;letter-spacing:0px;word-spacing:0px;display:inline;fill:#333333;fill-opacity:1;stroke:none;stroke-width:0.291115px;stroke-linecap:butt;stroke-linejoin:miter;stroke-opacity:1"
       xml:space="preserve"><tspan
         style="font-style:normal;font-variant:normal;font-weight:normal;font-stretch:normal;font-size:9.08757px;font-family:Roboto;-inkscape-font-specification:Roboto;fill:#333333;stroke-width:0.291115px"
         y="139.89149"
         x="122.42766"
         id="tspan1164"
         sodipodi:role="line">h</tspan></text>
    <path
       inkscape:label="tab-icon"
       fill="#1d1d1d"
       id="🔹-Icon-Color"
       d="m 144.97333,134.77684 1.3554,1.3554 h -6.19814 c -0.25886,0 -0.47064,0.21171 -0.47064,0.47063 0,0.25884 0.21171,0.47062 0.47064,0.47062 h 6.19814 l -1.3554,1.35539 c -0.1836,0.18361 -0.1836,0.48005 0,0.66361 0.18361,0.1836 0.48005,0.1836 0.66358,0 l 2.16017,-2.1602 c 0.1836,-0.1836 0.1836,-0.48002 0,-0.66358 l -2.16017,-2.16016 c -0.1836,-0.18361 -0.48004,-0.18361 -0.66358,0 -0.17884,0.1836 -0.1836,0.48473 0,0.66829 z m 3.62852,-0.5271 v 4.70624 c 0,0.25886 0.21171,0.47064 0.47064,0.47064 0.25885,0 0.47063,-0.21171 0.47063,-0.47064 v -4.70624 c 0,-0.25886 -0.21171,-0.47064 -0.47063,-0.47064 -0.25884,0 -0.47064,0.21171 -0.47064,0.47064 z"
       style="fill:#cccccc;fill-rule:evenodd;stroke:none;stroke-width:0.470627" />
    <text
       id="text1192"
       y="139.80275"
       x="153.42612"
       style="font-style:normal;font-weight:normal;font-size:9.08757px;line-height:1.00973px;font-family:sans-serif;letter-spacing:0px;word-spacing:0px;display:inline;fill:#333333;fill-opacity:1;stroke:none;stroke-width:0.36455px;stroke-linecap:butt;stroke-linejoin:miter;stroke-opacity:1"
       xml:space="preserve"><tspan
         style="font-style:normal;font-variant:normal;font-weight:normal;font-stretch:normal;font-size:9.08757px;font-family:Roboto;-inkscape-font-specification:Roboto;fill:#333333;stroke-width:0.36455px"
         y="139.80275"
         x="153.42612"
         id="tspan1190"
         sodipodi:role="line">Hello</tspan></text>
  </g>
  <g
     aria-label="Briskine"
     id="text2007"
     style="font-style:normal;font-variant:normal;font-weight:500;font-stretch:normal;font-size:47.9249px;line-height:1.25;font-family:'Palanquin Dark';-inkscape-font-specification:'Palanquin Dark Medium';fill:#f9f9f9;fill-opacity:1;stroke:none;stroke-width:1.19813"
     transform="matrix(0.91701152,0,0,0.91701152,19.737071,-225.29652)">
    <path
       d="m 38.925461,279.06165 q -0.04792,1.77322 -0.862648,3.25889 -0.766798,1.43775 -2.012846,2.4921 2.108696,1.19812 3.450593,3.21096 1.341897,1.96493 1.341897,4.74457 0,4.84041 -3.498518,7.23666 -3.498517,2.34832 -8.722331,2.34832 H 15.586035 v -32.58893 h 11.7416 q 4.98419,0 8.291008,2.15662 3.306818,2.15662 3.306818,7.14081 z M 26.608762,275.51521 H 22.58307 v 7.23666 h 4.217391 q 2.204546,0 3.450593,-0.86265 1.293973,-0.91058 1.293973,-2.6838 0,-2.06077 -1.341898,-2.87549 -1.293972,-0.81472 -3.594367,-0.81472 z M 28.621608,288.407 H 22.58307 v 8.29101 h 5.750988 q 2.34832,0 3.786067,-1.00642 1.437747,-1.05435 1.437747,-2.97135 0,-2.06077 -1.341897,-3.16304 -1.341897,-1.1502 -3.594367,-1.1502 z"
       style="font-style:normal;font-variant:normal;font-weight:500;font-stretch:normal;font-family:'Palanquin Dark';-inkscape-font-specification:'Palanquin Dark Medium';fill:#f9f9f9;fill-opacity:1;stroke-width:1.19813"
       id="path14" />
    <path
       d="m 57.209167,279.10957 1.437747,5.65514 q -1.629447,0 -3.642292,0.7668 -2.012846,0.7668 -3.833992,2.34832 v 14.47332 H 44.125669 V 279.1575 h 3.594368 l 2.108695,3.06719 q 1.437747,-1.19812 3.450593,-2.15662 2.012846,-0.9585 3.929842,-0.9585 z"
       style="font-style:normal;font-variant:normal;font-weight:500;font-stretch:normal;font-family:'Palanquin Dark';-inkscape-font-specification:'Palanquin Dark Medium';fill:#f9f9f9;fill-opacity:1;stroke-width:1.19813"
       id="path16" />
    <path
       d="m 68.956141,271.96876 q 0,1.62945 -1.198123,2.77965 -1.150197,1.10227 -2.779644,1.10227 -1.629447,0 -2.731719,-1.10227 -1.102273,-1.1502 -1.102273,-2.77965 0,-1.62944 1.102273,-2.77964 1.102272,-1.1502 2.731719,-1.1502 1.629447,0 2.779644,1.1502 1.198123,1.1502 1.198123,2.77964 z m -0.431324,7.14081 v 23.24358 h -7.044961 v -23.24358 z"
       style="font-style:normal;font-variant:normal;font-weight:500;font-stretch:normal;font-family:'Palanquin Dark';-inkscape-font-specification:'Palanquin Dark Medium';fill:#f9f9f9;fill-opacity:1;stroke-width:1.19813"
       id="path18" />
    <path
       d="m 82.408301,287.64021 q 2.923419,1.05434 5.463439,2.92341 2.54002,1.82115 2.54002,4.88834 0,3.49852 -2.44417,5.51137 -2.44417,1.96492 -7.23666,1.96492 -1.485672,0 -4.217391,-0.67095 -2.683795,-0.67095 -4.457016,-2.01285 l 2.060771,-4.98419 q 1.581521,0.7668 3.258893,1.24605 1.725296,0.47925 2.971344,0.47925 1.437747,0 2.15662,-0.3834 0.718874,-0.43132 0.718874,-1.00642 0,-0.7668 -0.766799,-1.3419 -0.718873,-0.62302 -2.34832,-1.1502 -2.827569,-0.91057 -5.367589,-2.63587 -2.540019,-1.72529 -2.540019,-4.74456 0,-3.45059 2.492095,-5.36759 2.540019,-1.917 6.997035,-1.917 1.437747,0 3.881917,0.62303 2.492095,0.62302 4.313241,1.96492 l -2.060771,4.98419 q -1.581522,-0.7668 -3.067193,-1.19812 -1.485672,-0.47925 -2.971344,-0.47925 -1.150198,0 -1.725297,0.43132 -0.575098,0.3834 -0.575098,1.00642 0,0.47925 0.623023,0.91058 0.670949,0.3834 2.300395,0.9585 z"
       style="font-style:normal;font-variant:normal;font-weight:500;font-stretch:normal;font-family:'Palanquin Dark';-inkscape-font-specification:'Palanquin Dark Medium';fill:#f9f9f9;fill-opacity:1;stroke-width:1.19813"
       id="path20-7" />
    <path
       d="m 100.94047,268.51817 v 18.49901 l 9.53705,-8.57856 q 1.00643,1.24605 2.01285,2.4921 1.05435,1.24605 2.06077,2.44417 l -6.46986,5.41551 q 2.06077,3.40267 4.16947,6.80534 2.15662,3.40267 4.21739,6.75741 h -7.90761 l -5.46344,-9.39328 q -0.52717,0.47925 -1.10227,0.9585 -0.52718,0.43132 -1.05435,0.86265 v 7.57213 h -6.997036 v -33.30781 z"
       style="font-style:normal;font-variant:normal;font-weight:500;font-stretch:normal;font-family:'Palanquin Dark';-inkscape-font-specification:'Palanquin Dark Medium';fill:#f9f9f9;fill-opacity:1;stroke-width:1.19813"
       id="path22" />
    <path
       d="m 126.52495,271.96876 q 0,1.62945 -1.19812,2.77965 -1.1502,1.10227 -2.77965,1.10227 -1.62944,0 -2.73172,-1.10227 -1.10227,-1.1502 -1.10227,-2.77965 0,-1.62944 1.10227,-2.77964 1.10228,-1.1502 2.73172,-1.1502 1.62945,0 2.77965,1.1502 1.19812,1.1502 1.19812,2.77964 z m -0.43132,7.14081 v 23.24358 h -7.04496 v -23.24358 z"
       style="font-style:normal;font-variant:normal;font-weight:500;font-stretch:normal;font-family:'Palanquin Dark';-inkscape-font-specification:'Palanquin Dark Medium';fill:#f9f9f9;fill-opacity:1;stroke-width:1.19813"
       id="path24" />
    <path
       d="m 144.74196,278.24692 q 4.79249,0 6.80534,2.77965 2.06077,2.73172 2.06077,6.80533 v 14.52125 h -7.04496 v -14.2337 q 0,-1.91699 -1.00643,-2.92341 -0.95849,-1.05435 -2.68379,-1.05435 -1.1502,0 -2.58795,0.62302 -1.38982,0.5751 -2.54002,1.3419 v 16.24654 h -7.04496 v -23.24358 h 3.6423 l 1.86907,2.34832 q 1.53359,-1.34189 3.92984,-2.25247 2.39624,-0.9585 4.60079,-0.9585 z"
       style="font-style:normal;font-variant:normal;font-weight:500;font-stretch:normal;font-family:'Palanquin Dark';-inkscape-font-specification:'Palanquin Dark Medium';fill:#f9f9f9;fill-opacity:1;stroke-width:1.19813"
       id="path26" />
    <path
       d="m 168.22331,278.43862 q 5.46344,0 8.09931,3.59437 2.63587,3.59437 2.63587,8.53063 v 2.3004 h -15.14427 q 0.47925,1.96492 1.96492,3.06719 1.5336,1.10228 3.88192,1.10228 1.58152,0 2.92342,-0.33548 1.38982,-0.3834 2.97134,-1.1502 l 2.06077,4.98419 q -1.77322,1.3419 -4.31324,1.86907 -2.54002,0.52718 -4.02569,0.52718 -5.89476,0 -9.48913,-3.16305 -3.54644,-3.21096 -3.54644,-9.00988 0,-5.65513 3.30681,-8.96195 3.30682,-3.35475 8.67441,-3.35475 z m -0.1917,5.84684 q -1.62945,0 -2.77964,1.05435 -1.1502,1.05435 -1.48568,2.97134 h 8.48271 q -0.33547,-1.82114 -1.38982,-2.92342 -1.05435,-1.10227 -2.82757,-1.10227 z"
       style="font-style:normal;font-variant:normal;font-weight:500;font-stretch:normal;font-family:'Palanquin Dark';-inkscape-font-specification:'Palanquin Dark Medium';fill:#f9f9f9;fill-opacity:1;stroke-width:1.19813"
       id="path28" />
  </g>
</svg>
