<?xml version="1.0" encoding="UTF-8" standalone="no"?>
<!-- Created with Inkscape (http://www.inkscape.org/) -->

<svg
   xmlns:dc="http://purl.org/dc/elements/1.1/"
   xmlns:cc="http://creativecommons.org/ns#"
   xmlns:rdf="http://www.w3.org/1999/02/22-rdf-syntax-ns#"
   xmlns:svg="http://www.w3.org/2000/svg"
   xmlns="http://www.w3.org/2000/svg"
   xmlns:sodipodi="http://sodipodi.sourceforge.net/DTD/sodipodi-0.dtd"
   xmlns:inkscape="http://www.inkscape.org/namespaces/inkscape"
   width="128"
   height="128"
   id="svg2"
   version="1.1"
   inkscape:version="0.48.4 r9939"
   sodipodi:docname="quicktext-icon.svg"
   inkscape:export-filename="/media/Mokush/Dev/quicktext-chrome/artwork/quicktext-icon.png"
   inkscape:export-xdpi="180"
   inkscape:export-ydpi="180">
  <defs
     id="defs4" />
  <sodipodi:namedview
     id="base"
     pagecolor="#ffffff"
     bordercolor="#666666"
     borderopacity="1.0"
     inkscape:pageopacity="0.0"
     inkscape:pageshadow="2"
     inkscape:zoom="1.4142136"
     inkscape:cx="113.86064"
     inkscape:cy="117.12627"
     inkscape:document-units="px"
     inkscape:current-layer="layer1"
     showgrid="true"
     inkscape:window-width="1319"
     inkscape:window-height="768"
     inkscape:window-x="47"
     inkscape:window-y="0"
     inkscape:window-maximized="1"
     showguides="true"
     inkscape:guide-bbox="true"
     fit-margin-top="0"
     fit-margin-left="0"
     fit-margin-right="0"
     fit-margin-bottom="0">
    <inkscape:grid
       type="xygrid"
       id="grid3012"
       empspacing="5"
       visible="true"
       enabled="true"
       snapvisiblegridlinesonly="true" />
  </sodipodi:namedview>
  <metadata
     id="metadata7">
    <rdf:RDF>
      <cc:Work
         rdf:about="">
        <dc:format>image/svg+xml</dc:format>
        <dc:type
           rdf:resource="http://purl.org/dc/dcmitype/StillImage" />
        <dc:title></dc:title>
      </cc:Work>
    </rdf:RDF>
  </metadata>
  <g
     inkscape:label="Layer 1"
     inkscape:groupmode="layer"
     id="layer1"
     transform="translate(-63.580357,-669.91394)">
    <path
       style="fill:#000000;fill-opacity:1;stroke:none"
       d="m 339.01716,603.80377 c -49.58996,0 -89.75327,40.25036 -89.75327,89.84033 0,46.09391 34.67731,83.9351 79.39378,89.05684 0.55408,0.11533 1.15121,0.0435 1.74109,0.0435 4.4767,0 8.09608,-3.38755 8.09608,-7.70434 0,-2.00691 -0.80004,-3.83921 -2.08931,-5.22328 -16.66629,-14.52143 -24.36016,-12.64316 -40.24396,-35.10561 -7.52539,-10.64217 -10.2477,-27.00567 -10.2477,-41.06715 0,-29.80891 23.29436,-53.97384 53.10329,-53.97384 29.80894,0 53.97385,24.16493 53.97385,53.97384 0,12.77878 -4.4962,24.44838 -11.92648,33.69013 L 367.1358,715.14654 c -7.20695,-6.29837 -12.94462,-12.12167 -19.23907,-7.13847 -0.39181,0.31027 -0.91236,0.77527 -1.21876,1.21876 -4.96484,7.1833 2.69939,14.15499 9.22778,21.15427 18.3854,19.71467 36.79646,39.40541 55.19261,59.11006 6.5284,6.99927 16.21316,8.16213 21.24132,3.13396 l 1.13171,-1.04465 c 5.02816,-5.02816 4.07298,-15.03 -3.13397,-21.32837 L 408.1385,750.92598 c 12.94843,-15.52761 20.719,-35.47629 20.719,-57.28192 0,-49.58997 -40.25037,-89.84033 -89.84034,-89.84033 z"
       id="path3804"
       inkscape:connector-curvature="0"
       sodipodi:nodetypes="sscsscssssccccccccccss" />
    <path
       style="fill:#000000;fill-opacity:1;stroke:none"
       d="m 125.26738,679.84666 c -29.221484,0 -52.888201,23.718 -52.888201,52.9395 0,29.22149 23.666717,52.88819 52.888201,52.88819 1.9149,0 3.78027,-0.10967 5.64279,-0.30778 L 104.7482,757.30658 c -1.01783,-1.07377 -1.9555,-2.05965 -2.87268,-3.07787 -5.191541,-5.66019 -8.412878,-13.15666 -8.412878,-21.44255 0,-17.56526 14.239468,-31.80474 31.804738,-31.80474 17.56528,0 31.80474,14.23948 31.80474,31.80474 0,7.53004 -2.64943,14.4065 -7.02782,19.85231 l -8.20767,-7.18172 c -4.24678,-3.71138 -7.62777,-7.14284 -11.33685,-4.20643 -0.23088,0.18283 -0.53762,0.45684 -0.71817,0.71817 -2.9256,4.23285 1.59065,8.341 5.43758,12.46541 10.83382,11.6171 21.68276,23.22012 32.52291,34.83132 3.84694,4.1244 9.5538,4.80963 12.5167,1.84672 l 0.66688,-0.61557 c 2.9629,-2.96291 2.40005,-8.85661 -1.84673,-12.56801 l -13.08098,-11.38814 c 7.63001,-9.14983 12.20892,-20.90483 12.20892,-33.75406 0,-29.2215 -23.71802,-52.9395 -52.93951,-52.9395 z"
       id="path3808"
       inkscape:connector-curvature="0"
       sodipodi:nodetypes="ssscccsssccccccccccss" />
  </g>
</svg>
