<?xml version="1.0" encoding="UTF-8" standalone="no"?>
<!-- Created with Inkscape (http://www.inkscape.org/) -->

<svg
   xmlns:dc="http://purl.org/dc/elements/1.1/"
   xmlns:cc="http://creativecommons.org/ns#"
   xmlns:rdf="http://www.w3.org/1999/02/22-rdf-syntax-ns#"
   xmlns:svg="http://www.w3.org/2000/svg"
   xmlns="http://www.w3.org/2000/svg"
   xmlns:sodipodi="http://sodipodi.sourceforge.net/DTD/sodipodi-0.dtd"
   xmlns:inkscape="http://www.inkscape.org/namespaces/inkscape"
   width="1400"
   height="560"
   id="svg2"
   version="1.1"
   inkscape:version="0.48.4 r9939"
   sodipodi:docname="quicktext-tile-marquee.svg"
   inkscape:export-filename="/media/Mokush/Dev/gmail-righttasks/artwork/gmail-righttasks-tile-marquee.png"
   inkscape:export-xdpi="90"
   inkscape:export-ydpi="90">
  <defs
     id="defs4" />
  <sodipodi:namedview
     id="base"
     pagecolor="#ffffff"
     bordercolor="#666666"
     borderopacity="1.0"
     inkscape:pageopacity="0.0"
     inkscape:pageshadow="2"
     inkscape:zoom="0.49497475"
     inkscape:cx="604.96875"
     inkscape:cy="283.4942"
     inkscape:document-units="px"
     inkscape:current-layer="layer1"
     showgrid="false"
     inkscape:window-width="1233"
     inkscape:window-height="800"
     inkscape:window-x="47"
     inkscape:window-y="0"
     inkscape:window-maximized="1"
     showguides="true"
     inkscape:guide-bbox="true"
     fit-margin-top="0"
     fit-margin-left="0"
     fit-margin-right="0"
     fit-margin-bottom="0">
    <inkscape:grid
       type="xygrid"
       id="grid3012"
       empspacing="5"
       visible="true"
       enabled="true"
       snapvisiblegridlinesonly="true" />
  </sodipodi:namedview>
  <metadata
     id="metadata7">
    <rdf:RDF>
      <cc:Work
         rdf:about="">
        <dc:format>image/svg+xml</dc:format>
        <dc:type
           rdf:resource="http://purl.org/dc/dcmitype/StillImage" />
        <dc:title />
      </cc:Work>
    </rdf:RDF>
  </metadata>
  <g
     inkscape:label="Layer 1"
     inkscape:groupmode="layer"
     id="layer1"
     transform="translate(-63.580357,-237.91394)">
    <rect
       style="fill:#141717;fill-opacity:1;fill-rule:nonzero;stroke:none"
       id="rect3978"
       width="1400"
       height="560"
       x="63.580357"
       y="237.91394" />
    <path
       style="fill:#0d5f5a;fill-opacity:1;stroke:none"
       d="m 784.38282,367.61736 c -78.99494,0 -142.97356,64.11729 -142.97356,143.11225 0,73.42582 55.23965,133.70541 126.47129,141.86413 0.88264,0.18371 1.83382,0.0693 2.77347,0.0693 7.13123,0 12.89676,-5.39624 12.89676,-12.27271 0,-3.19694 -1.27444,-6.11571 -3.32817,-8.32049 -26.54877,-23.13212 -38.80482,-20.1401 -64.10712,-55.92195 -11.98768,-16.95256 -16.32422,-43.01899 -16.32422,-65.41841 0,-47.48445 37.10708,-85.97825 84.59155,-85.97825 47.48451,0 85.97829,38.4938 85.97829,85.97825 0,20.35613 -7.16228,38.94535 -18.99844,53.66712 l -22.18793,-19.41444 c -11.48039,-10.03307 -20.62027,-19.30936 -30.6471,-11.37131 -0.62414,0.49425 -1.45335,1.23498 -1.94145,1.94143 -7.90878,11.44274 4.30002,22.54837 14.6995,33.69794 29.28727,31.40474 58.61538,62.77133 87.91976,94.16009 10.39947,11.14958 25.82694,13.00195 33.83659,4.9923 l 1.80277,-1.6641 c 8.00967,-8.00968 6.48809,-23.94223 -4.9923,-33.9753 L 894.49049,601.9774 c 20.62634,-24.73487 33.00457,-56.51237 33.00457,-91.24792 0,-78.99491 -64.11732,-143.11222 -143.11224,-143.11222 z"
       id="path3804"
       inkscape:connector-curvature="0"
       sodipodi:nodetypes="sscsscssssccccccccccss" />
  </g>
</svg>
